# 3ds Max Wavefront OBJ Exporter v0.99 - (c)2007 guruware
# File Created: 08.12.2022 00:32:53

mtllib megamanX_piernaI.mtl

#
# object Pierna_izquierda003
#

v  0.0118 0.2284 -0.4109
v  0.3215 0.2969 -0.3238
v  0.4755 0.2280 -0.3556
v  -0.1467 -0.1736 -0.6131
v  0.5605 -1.0245 -0.7692
v  -0.1442 -1.0572 -0.9268
v  -0.3834 -0.3510 -0.5138
v  -0.5248 -1.1596 -0.7005
v  -0.4664 -2.9973 -1.0495
v  -0.5455 -3.1177 -0.4325
v  -0.6025 -1.2783 -0.0762
v  -0.2272 -1.2928 0.1635
v  -0.2016 -0.3741 0.2801
v  0.4833 -1.2326 0.2072
v  0.4281 0.0601 0.4040
v  0.7288 0.5792 0.3502
v  0.2566 0.1533 0.3690
v  0.5834 0.6165 0.3445
v  -0.0567 0.0828 0.2950
v  -0.4590 -0.4667 0.0884
v  0.6190 0.7067 -0.0855
v  0.7642 0.6718 -0.0795
v  0.8426 -1.0684 -0.4408
v  0.8001 -1.1650 0.0150
v  1.0071 -2.5369 -0.2311
v  1.0497 -2.4403 -0.6869
v  0.7056 -3.0100 -0.0917
v  0.4173 -3.4505 -0.1603
v  0.7952 -2.7853 -1.1510
v  0.5218 -3.1888 -1.4019
v  -0.0959 -3.4241 -0.2013
v  0.0079 -3.1633 -1.4362
# 32 vertices

vn -0.3525 0.8259 -0.4400
vn -0.2248 0.8258 -0.5173
vn 0.2064 0.4021 -0.8920
vn -0.0396 0.3428 -0.9386
vn 0.4865 0.2667 -0.8320
vn -0.1993 0.2743 -0.9408
vn -0.8417 0.3783 -0.3853
vn -0.8499 0.1610 -0.5017
vn -0.8042 -0.3453 -0.4837
vn -0.8427 -0.4792 0.2454
vn -0.9100 -0.0221 0.4141
vn -0.3102 -0.1436 0.9398
vn -0.3935 -0.0030 0.9193
vn 0.2378 -0.1332 0.9621
vn 0.0807 -0.0333 0.9962
vn 0.6092 0.4380 0.6611
vn -0.4000 0.4634 0.7908
vn -0.3120 0.7122 0.6288
vn -0.5395 0.5862 0.6045
vn -0.8819 0.2382 0.4069
vn -0.2354 0.9042 -0.3563
vn 0.6851 0.6492 -0.3305
vn 0.9465 0.1476 -0.2870
vn 0.8453 -0.0181 0.5339
vn 0.8837 -0.2177 0.4143
vn 0.9678 -0.0918 -0.2345
vn 0.6133 -0.4366 0.6582
vn 0.3213 -0.8031 0.5018
vn 0.8199 -0.1460 -0.5535
vn 0.4439 -0.5242 -0.7267
vn -0.3445 -0.7883 0.5098
vn -0.2796 -0.4829 -0.8298
# 32 vertex normals

vt 0.5254 0.0651 0.0000
vt 0.5300 0.0591 0.0000
vt 0.5301 0.0678 0.0000
vt 0.5272 0.1002 0.0000
vt 0.5374 0.1676 0.0000
vt 0.5279 0.1660 0.0000
vt 0.5068 0.1076 0.0000
vt 0.5064 0.1658 0.0000
vt 0.5079 0.1740 0.0000
vt 0.5276 0.1736 0.0000
vt 0.5068 0.3285 0.0000
vt 0.5571 0.1776 0.0000
vt 0.5563 0.2970 0.0000
vt 0.5159 0.2967 0.0000
vt 0.5559 0.1707 0.0000
vt 0.5323 0.3242 0.0000
vt 0.5280 0.1689 0.0000
vt 0.5164 0.1736 0.0000
vt 0.5120 0.1660 0.0000
vt 0.5112 0.1002 0.0000
vt 0.5311 0.1676 0.0000
vt 0.5220 0.0678 0.0000
vt 0.5591 0.0022 0.0000
vt 0.5528 0.0053 0.0000
vt 0.9115 0.4752 0.0000
vt 0.9941 0.5188 0.0000
vt 0.9115 0.5188 0.0000
vt 0.9115 0.5246 0.0000
vt 0.9941 0.5246 0.0000
vt 0.9115 0.5846 0.0000
vt 0.9941 0.5846 0.0000
vt 0.9941 0.4752 0.0000
vt 0.5596 0.0008 0.0000
vt 0.5731 0.0073 0.0000
vt 0.5574 0.0054 0.0000
vt 0.5600 0.0072 0.0000
vt 0.5574 0.0025 0.0000
vt 0.5349 0.0036 0.0000
vt 0.5761 0.0045 0.0000
vt 0.5318 0.1697 0.0000
vt 0.5774 0.0007 0.0000
vt 0.5768 0.1667 0.0000
vt 0.5331 0.1659 0.0000
vt 0.5587 0.1736 0.0000
vt 0.5584 0.3024 0.0000
vt 0.5620 0.3026 0.0000
vt 0.5623 0.1739 0.0000
vt 0.5308 0.1736 0.0000
vt 0.5414 0.3037 0.0000
vt 0.5290 0.3280 0.0000
vt 0.9355 0.3705 0.0000
vt 0.9079 0.3709 0.0000
vt 0.9075 0.3839 0.0000
vt 0.9353 0.3837 0.0000
vt 0.9073 0.3956 0.0000
vt 0.9357 0.3952 0.0000
vt 0.9074 0.4051 0.0000
vt 0.5394 0.3276 0.0000
vt 0.5274 0.1727 0.0000
vt 0.5399 0.3270 0.0000
vt 0.5037 0.3336 0.0000
vt 0.5371 0.1736 0.0000
vt 0.5361 0.3028 0.0000
vt 0.9360 0.3559 0.0000
vt 0.9077 0.3561 0.0000
vt 0.5585 0.1682 0.0000
vt 0.5568 0.1288 0.0000
vt 0.5551 0.1655 0.0000
vt 0.5272 0.1637 0.0000
vt 0.5299 0.1271 0.0000
vt 0.9366 0.4049 0.0000
# 71 texture coords

o Pierna_izquierda003
g Pierna_izquierda003
usemtl Material___1
s 2
f 1/1/1 2/2/2 3/3/3 
f 4/4/4 1/1/1 3/3/3 
f 4/4/4 3/3/3 5/5/5 
f 4/4/4 5/5/5 6/6/6 
f 7/7/7 4/4/4 6/6/6 
f 8/8/8 7/7/7 6/6/6 
f 8/9/8 6/10/6 9/11/9 
f 8/12/8 9/13/9 10/14/10 
f 8/15/8 10/16/10 11/17/11 
f 11/9/11 10/11/10 12/18/12 
f 11/8/11 12/19/12 13/20/13 
f 12/19/12 14/21/14 13/20/13 
f 13/20/13 14/21/14 15/22/15 
f 15/22/15 14/21/14 16/23/16 
f 17/2/17 15/22/15 16/23/16 
f 17/2/17 16/23/16 18/24/18 
f 18/25/18 2/26/2 17/27/17 
f 2/26/2 19/28/19 17/27/17 
f 13/20/13 17/2/17 19/1/19 
f 20/7/20 13/20/13 19/1/19 
f 1/29/1 20/30/20 19/28/19 
f 1/29/1 7/31/7 20/30/20 
f 21/32/21 2/26/2 18/25/18 
f 21/33/21 18/34/18 22/35/22 
f 2/2/2 21/24/21 22/23/22 
f 22/36/22 18/37/18 16/23/16 
f 22/38/22 16/39/16 23/40/23 
f 16/41/16 24/42/24 23/43/23 
f 24/44/24 25/45/25 26/46/26 
f 26/46/26 23/47/23 24/44/24 
f 14/48/14 25/45/25 24/44/24 
f 14/48/14 27/49/27 25/45/25 
f 28/50/28 27/49/27 14/48/14 
f 29/51/29 27/52/27 28/53/28 
f 28/53/28 30/54/30 29/51/29 
f 28/53/28 31/55/31 32/56/32 
f 32/56/32 30/54/30 28/53/28 
f 32/56/32 31/55/31 10/57/10 
f 6/10/6 30/58/30 32/50/32 
f 12/59/12 31/60/31 28/61/28 
f 30/58/30 5/62/5 29/63/29 
f 5/62/5 26/46/26 29/63/29 
f 26/64/26 27/52/27 29/51/29 
f 26/64/26 25/65/25 27/52/27 
f 5/62/5 23/44/23 26/46/26 
f 22/23/22 23/66/23 5/5/5 
f 14/21/14 24/66/24 16/23/16 
f 13/20/13 15/22/15 17/2/17 
f 12/18/12 28/50/28 14/48/14 
f 11/8/11 13/20/13 20/7/20 
f 10/11/10 31/50/31 12/18/12 
f 7/67/7 8/68/8 11/69/11 
f 11/69/11 20/70/20 7/67/7 
f 32/56/32 10/57/10 9/71/9 
f 9/11/9 6/10/6 32/50/32 
f 6/10/6 5/62/5 30/58/30 
f 3/3/3 22/23/22 5/5/5 
f 2/2/2 22/23/22 3/3/3 
f 1/29/1 19/28/19 2/26/2 
# 59 faces

#
# object Pierna_izquierda002
#

v  0.3088 -2.4606 0.0814
v  0.5682 -2.6560 -0.0314
v  0.4057 -2.3333 0.0244
v  0.4212 -2.6832 0.0406
v  0.4644 -3.0019 -0.0908
v  0.3495 -2.9223 0.0011
v  0.1584 -3.1707 -0.1272
v  0.1398 -3.0403 -0.0161
v  -0.1669 -3.0536 -0.1455
v  -0.0890 -2.9603 -0.0270
v  -0.3281 -2.7209 -0.1292
v  -0.2039 -2.7299 -0.0105
v  -0.2256 -2.3823 -0.0321
v  -0.1273 -2.4957 0.0516
v  0.0777 -2.2226 0.0345
v  0.0823 -2.3835 0.0953
# 16 vertices

vn 0.1957 0.0491 0.9794
vn 0.4559 -0.1129 0.8828
vn 0.3001 0.2005 0.9326
vn 0.2941 -0.1412 0.9453
vn 0.3532 -0.4404 0.8254
vn 0.2353 -0.3444 0.9089
vn -0.0099 -0.6425 0.7662
vn -0.0180 -0.4825 0.8757
vn -0.4637 -0.5184 0.7185
vn -0.3491 -0.4007 0.8471
vn -0.6813 -0.1835 0.7086
vn -0.5209 -0.1913 0.8319
vn -0.5252 0.1735 0.8331
vn -0.3768 0.0339 0.9257
vn -0.1066 0.3505 0.9305
vn -0.0901 0.1494 0.9847
vn 0.0739 0.1733 -0.9821
vn 0.0218 0.1704 -0.9851
vn 0.0716 0.1742 -0.9821
vn 0.1489 0.1772 -0.9728
vn 0.1461 0.1780 -0.9731
vn 0.2839 0.1837 -0.9411
vn 0.0186 0.1714 -0.9850
vn -0.0012 0.1697 -0.9855
# 24 vertex normals

vt 0.3721 0.8978 0.0000
vt 0.3456 0.9046 0.0000
vt 0.3456 0.8975 0.0000
vt 0.3721 0.9049 0.0000
vt 0.3456 0.9139 0.0000
vt 0.3721 0.9141 0.0000
vt 0.3456 0.9200 0.0000
vt 0.3721 0.9204 0.0000
vt 0.3459 0.8925 0.0000
vt 0.3724 0.8928 0.0000
vt 0.3942 0.8985 0.0000
vt 0.3849 0.8985 0.0000
vt 0.3942 0.8926 0.0000
vt 0.3942 0.9015 0.0000
vt 15.1554 7.3927 0.0000
vt 13.0829 13.0485 0.0000
vt 12.6980 1.8336 0.0000
vt 0.3849 0.8926 0.0000
vt 6.8091 -0.6008 0.0000
vt 2.6941 13.3569 0.0000
vt 1.7735 2.2118 0.0000
vt 2.6671 13.3529 0.0000
vt -0.0024 7.9758 0.0000
vt 1.7011 2.2116 0.0000
# 24 texture coords

o Pierna_izquierda002
g Pierna_izquierda002
usemtl wire_000000000
s 1
f 33/72/33 34/73/34 35/74/35 
f 33/72/33 36/75/36 34/73/34 
f 36/75/36 37/76/37 34/73/34 
f 38/77/38 37/76/37 36/75/36 
f 39/78/39 37/76/37 38/77/38 
f 40/79/40 39/78/39 38/77/38 
f 41/76/41 39/78/39 40/79/40 
f 41/76/41 40/79/40 42/77/42 
f 43/73/43 41/76/41 42/77/42 
f 43/73/43 42/77/42 44/75/44 
f 43/73/43 44/75/44 45/74/45 
f 45/74/45 44/75/44 46/72/46 
f 45/74/45 46/72/46 47/80/47 
f 46/72/46 48/81/48 47/80/47 
f 47/80/47 48/81/48 35/74/35 
f 47/80/49 35/74/50 39/78/51 
f 46/82/46 42/83/42 48/84/48 
f 45/74/52 47/80/49 41/76/53 
f 44/85/44 42/83/42 46/82/46 
s 4
f 43/86/54 45/87/52 41/88/53 
s 1
f 42/83/42 40/89/40 48/84/48 
f 48/84/48 40/89/40 33/82/33 
f 41/76/53 47/80/49 39/78/51 
f 40/89/40 38/83/38 33/82/33 
s 4
f 39/90/51 35/91/50 37/92/55 
s 1
f 33/82/33 38/83/38 36/85/36 
f 48/81/48 33/72/33 35/74/35 
s 4
f 35/93/50 34/94/56 37/95/55 
# 28 faces

#
# object Pierna_izquierda001
#

v  0.1961 -2.0897 -1.2751
v  -0.1306 -2.1334 -1.1991
v  0.1763 -1.9718 -1.1454
v  0.4186 -2.1752 -1.2451
v  0.5003 -2.0933 -1.1119
v  0.5296 -2.3996 -1.2726
v  0.6612 -2.4181 -1.1522
v  0.4620 -2.6303 -1.3561
v  0.5608 -2.7537 -1.2713
v  0.2553 -2.7358 -1.4305
v  0.2627 -2.9038 -1.3703
v  0.0273 -2.6577 -1.4257
v  -0.0698 -2.7935 -1.3607
v  -0.0872 -2.4409 -1.3608
v  -0.2329 -2.4773 -1.2740
v  -0.0162 -2.2026 -1.3147
# 16 vertices

vn 0.0878 0.5713 -0.8161
vn -0.4169 0.5353 -0.7346
vn 0.0571 0.7382 -0.6721
vn 0.4105 0.4604 -0.7871
vn 0.5046 0.5617 -0.6556
vn 0.5346 0.2500 -0.8073
vn 0.6758 0.2331 -0.6993
vn 0.4519 0.0392 -0.8912
vn 0.5728 -0.1089 -0.8125
vn 0.1499 -0.1055 -0.9831
vn 0.1585 -0.3275 -0.9315
vn -0.2058 -0.0203 -0.9784
vn -0.3384 -0.1937 -0.9208
vn -0.3854 0.1807 -0.9049
vn -0.5379 0.1488 -0.8298
vn -0.2525 0.4318 -0.8659
vn 0.0674 -0.2314 0.9705
vn -0.0333 -0.2405 0.9701
vn -0.0279 -0.2379 0.9709
vn -0.1204 -0.2445 0.9621
vn -0.2039 -0.2474 0.9472
vn -0.2038 -0.2473 0.9473
vn -0.1180 -0.2432 0.9628
vn -0.2702 -0.2492 0.9300
# 24 vertex normals

vt 0.3724 0.8928 0.0000
vt 0.3456 0.8975 0.0000
vt 0.3459 0.8925 0.0000
vt 0.3721 0.8978 0.0000
vt 0.3721 0.9049 0.0000
vt 0.3456 0.9046 0.0000
vt 0.3721 0.9141 0.0000
vt 0.3456 0.9139 0.0000
vt 0.3721 0.9204 0.0000
vt 0.3456 0.9200 0.0000
vt -13.4975 3.1890 0.0000
vt -10.7274 -2.1482 0.0000
vt -11.9073 8.9928 0.0000
vt 0.3942 0.9015 0.0000
vt 0.3942 0.8985 0.0000
vt 0.3830 0.8976 0.0000
vt -13.8106 9.1708 0.0000
vt -12.9566 -1.9999 0.0000
vt -7.5131 -3.8672 0.0000
vt 0.3830 0.8917 0.0000
vt 0.3942 0.8926 0.0000
vt -6.4211 10.1781 0.0000
vt -6.1960 -1.0186 0.0000
vt -4.0671 4.6710 0.0000
# 24 texture coords

o Pierna_izquierda001
g Pierna_izquierda001
usemtl wire_000000000
s 1
f 49/96/57 50/97/58 51/98/59 
f 49/96/57 51/98/59 52/99/60 
f 52/99/60 51/98/59 53/97/61 
f 53/97/61 54/100/62 52/99/60 
f 53/97/61 55/101/63 54/100/62 
f 56/102/64 54/100/62 55/101/63 
f 56/102/64 55/101/63 57/103/65 
f 58/104/66 56/102/64 57/103/65 
f 58/104/66 57/103/65 59/105/67 
f 60/102/68 58/104/66 59/105/67 
f 61/103/69 60/102/68 59/105/67 
f 62/100/70 60/102/68 61/103/69 
f 63/101/71 62/100/70 61/103/69 
f 63/101/71 64/99/72 62/100/70 
f 63/101/71 50/97/58 64/99/72 
s 4
f 63/106/73 61/107/74 50/108/75 
s 1
f 62/109/70 64/110/72 60/111/68 
s 4
f 50/112/75 61/113/74 59/114/76 
s 1
f 64/110/72 58/115/66 60/111/68 
f 64/110/72 49/116/57 58/115/66 
f 59/105/76 57/103/77 53/97/78 
f 53/97/78 51/98/79 59/105/76 
f 49/116/57 56/111/64 58/115/66 
s 4
f 53/117/78 57/118/77 55/119/80 
s 1
f 52/110/60 54/109/62 56/111/64 
f 49/116/57 52/110/60 56/111/64 
f 50/97/75 59/105/76 51/98/79 
f 64/99/72 50/97/58 49/96/57 
# 28 faces

#
# object Pierna_izquierda
#

v  0.0118 0.2284 -0.4109
v  -0.1467 -0.1736 -0.6131
v  -0.3834 -0.3510 -0.5138
# 3 vertices

vn -0.6343 0.5323 -0.5607
# 1 vertex normals

vt 0.5254 0.0651 0.0000
vt 0.5272 0.1002 0.0000
vt 0.5068 0.1076 0.0000
# 3 texture coords

o Pierna_izquierda
g Pierna_izquierda
usemtl Material___1
s 1
f 65/120/81 66/121/81 67/122/81 
# 1 faces

