# 3ds Max Wavefront OBJ Exporter v0.99 - (c)2007 guruware
# File Created: 08.12.2022 00:33:39

mtllib megamanX_pieI.mtl

#
# object Pierna_izquierda004
#

v  -0.8395 -0.3627 0.0433
v  -0.7693 -1.0786 -0.3951
v  -0.9681 -1.0806 0.0344
v  -0.6863 -0.3905 -0.3951
v  -0.1397 -0.6266 -0.7208
v  -0.6675 -0.3900 0.4295
v  -0.1080 -0.6256 0.6677
v  -0.1515 -1.0711 0.6580
v  -0.1830 -1.0721 -0.7215
v  -0.7506 -1.0780 0.4227
# 10 vertices

vn -0.9872 0.1569 0.0292
vn -0.7525 0.1094 -0.6495
vn -0.9871 0.1590 0.0198
vn -0.7832 0.0945 -0.6146
vn -0.4891 0.0540 -0.8705
vn 0.3589 0.9333 -0.0088
vn 0.3548 0.9349 -0.0087
vn 0.3916 0.9201 -0.0096
vn 0.9951 -0.0967 -0.0226
vn -0.7009 0.0935 0.7071
vn -0.3750 0.0268 0.9266
vn -0.3854 0.0176 0.9226
vn -0.6725 0.0740 0.7364
vn 0.0113 -0.9999 0.0005
vn -0.4863 0.0487 -0.8724
vn 0.1662 0.9861 -0.0045
# 16 vertex normals

vt 0.4145 0.9235 0.0000
vt 0.3813 0.9977 0.0000
vt 0.4147 0.9973 0.0000
vt 0.3811 0.9242 0.0000
vt 0.3476 0.9246 0.0000
vt 0.3758 0.9269 0.0000
vt 0.4178 0.9417 0.0000
vt 0.4197 0.9769 0.0000
vt 0.3490 0.9518 0.0000
vt 0.4167 0.9926 0.0000
vt 0.3558 0.9962 0.0000
vt 0.3547 0.9764 0.0000
vt 0.4161 0.9728 0.0000
vt 0.3476 0.9977 0.0000
vt 0.8799 0.8978 0.0000
vt 0.9007 0.9513 0.0000
vt 0.9343 0.9715 0.0000
vt 0.9982 0.8978 0.0000
vt 0.9709 0.9513 0.0000
vt 0.4369 0.9441 0.0000
# 20 texture coords

o Pierna_izquierda004
g Pierna_izquierda004
usemtl Material___1
s 2
f 1/1/1 2/2/2 3/3/3 
f 1/1/1 4/4/4 2/2/2 
f 2/2/2 4/4/4 5/5/5 
f 4/6/6 6/7/7 7/8/8 
f 7/8/8 5/9/8 4/6/6 
f 8/10/9 9/11/9 5/12/9 
f 5/12/9 7/13/9 8/10/9 
f 6/4/10 8/14/11 7/5/12 
f 10/2/13 8/14/11 6/4/10 
f 6/4/10 3/3/3 10/2/13 
f 8/15/14 10/16/14 3/17/14 
f 9/18/14 8/15/14 3/17/14 
f 2/19/14 9/18/14 3/17/14 
f 2/2/2 5/5/5 9/14/15 
f 4/4/6 1/1/16 6/20/7 
f 1/1/1 3/3/3 6/4/10 
# 16 faces

#
# object Pierna_izquierda005
#

v  1.6124 -0.9269 -0.3077
v  1.6263 -0.9264 0.3012
v  1.3183 -1.0546 0.4780
v  1.2960 -1.0552 -0.4993
v  0.5320 -0.6678 -0.6513
v  0.7050 -1.0620 -0.6830
v  1.4988 -0.6567 -0.2722
v  0.8759 -0.2481 -0.2593
v  0.8884 -0.2477 0.2889
v  1.5116 -0.6563 0.2895
v  0.5612 -0.6669 0.6271
v  0.7355 -1.0611 0.6561
v  -0.0019 -0.6439 0.6840
v  -0.0431 -1.0699 0.6904
v  -0.0760 -1.0709 -0.7543
v  -0.0341 -0.6449 -0.7270
v  0.0312 -0.1673 -0.4450
v  0.0517 -0.1666 0.4537
v  0.5835 0.1398 -0.2420
v  0.5956 0.1402 0.2905
# 20 vertices

vn 0.3801 -0.9249 -0.0080
vn 0.1520 -0.9884 -0.0028
vn 0.1442 -0.9895 -0.0026
vn 0.2182 0.3228 -0.9210
vn 0.3484 0.2970 -0.8891
vn 0.2243 0.1648 -0.9605
vn 0.6712 0.5841 -0.4565
vn 0.5896 0.6454 -0.4856
vn 0.5953 0.6319 0.4964
vn 0.6783 0.5662 0.4684
vn 0.7801 0.3534 0.5163
vn 0.7504 0.3859 -0.5367
vn 0.3370 0.2469 0.9086
vn 0.1968 0.2813 0.9392
vn 0.2081 0.1490 0.9667
vn 0.0855 0.2267 0.9702
vn 0.0440 0.0108 0.9990
vn 0.0113 -0.9999 0.0004
vn 0.0113 -0.9999 0.0005
vn 0.0901 0.0550 -0.9944
vn 0.1211 0.2768 -0.9533
vn -0.9941 0.1065 0.0226
vn -0.9951 0.0965 0.0226
vn -0.9940 0.1073 0.0226
vn -0.8953 0.4450 0.0201
vn -0.8826 0.4697 0.0198
vn 0.1007 0.4635 -0.8803
vn 0.6042 0.5931 -0.5321
vn -0.4889 0.8723 0.0105
vn 0.6059 0.5744 0.5505
vn 0.0795 0.3978 0.9140
# 31 vertex normals

vt 0.9575 0.7413 0.0000
vt 0.9078 0.7413 0.0000
vt 0.8935 0.7657 0.0000
vt 0.9732 0.7657 0.0000
vt 0.0187 0.9171 0.0000
vt 0.0172 0.8730 0.0000
vt 0.0070 0.8866 0.0000
vt 0.0398 0.8679 0.0000
vt 0.0393 0.9179 0.0000
vt 0.1049 0.9178 0.0000
vt 0.1035 0.8684 0.0000
vt 0.1063 0.8532 0.0000
vt 0.0382 0.8533 0.0000
vt 0.1240 0.8717 0.0000
vt 0.1210 0.9191 0.0000
vt 0.1358 0.8898 0.0000
vt 0.1305 0.9741 0.0000
vt 0.1372 0.9776 0.0000
vt 0.9890 0.8173 0.0000
vt 0.8795 0.8173 0.0000
vt 0.8775 0.8828 0.0000
vt 0.9956 0.8828 0.0000
vt 0.0060 0.9768 0.0000
vt 0.0158 0.9712 0.0000
vt 0.0302 0.9653 0.0000
vt 0.1091 0.9665 0.0000
vt 0.0443 0.9518 0.0000
vt 0.0895 0.9511 0.0000
# 28 texture coords

o Pierna_izquierda005
g Pierna_izquierda005
usemtl Material___1
s 2
f 11/21/17 12/22/17 13/23/18 
f 13/23/18 14/24/19 11/21/17 
f 15/25/20 14/26/21 16/27/22 
f 15/25/20 17/28/23 14/26/21 
f 15/25/20 18/29/24 17/28/23 
f 17/28/23 18/29/24 19/30/25 
f 19/30/25 20/31/26 17/28/23 
f 12/32/27 11/33/28 17/28/23 
f 17/28/23 20/31/26 12/32/27 
f 13/34/29 12/32/27 20/31/26 
f 21/35/30 13/34/29 20/31/26 
f 21/35/30 22/36/31 13/34/29 
f 23/37/32 22/36/31 21/35/30 
f 24/38/33 22/36/31 23/37/32 
f 16/39/34 14/24/19 13/23/18 
f 16/39/34 13/23/18 22/40/35 
f 16/39/34 22/40/35 24/41/35 
f 25/42/35 16/39/34 24/41/35 
f 25/43/36 26/44/37 16/27/22 
f 26/44/38 25/43/39 24/38/39 
f 24/38/39 23/37/40 26/44/38 
f 27/45/41 26/44/38 23/37/40 
f 23/37/40 28/46/42 27/45/41 
f 26/44/37 27/45/43 15/25/20 
f 27/45/43 29/47/44 15/25/20 
f 28/46/42 30/48/45 29/47/45 
f 29/47/45 27/45/41 28/46/42 
f 19/30/25 18/29/24 29/47/44 
f 29/47/44 30/48/46 19/30/25 
f 28/46/47 21/35/30 30/48/46 
f 21/35/30 19/30/25 30/48/46 
f 23/37/32 21/35/30 28/46/47 
f 21/35/30 20/31/26 19/30/25 
f 15/25/20 29/47/44 18/29/24 
f 26/44/37 15/25/20 16/27/22 
f 14/26/21 17/28/23 11/33/28 
# 36 faces

#
# object Pierna_izquierda006
#

v  -0.1509 1.0041 0.1557
v  0.0517 -0.1618 0.3549
v  0.5156 0.0953 0.2705
v  -0.6301 -0.4018 0.3524
v  0.5049 0.0950 -0.2013
v  0.0335 -0.1647 -0.3416
# 6 vertices

vn 0.4193 0.6752 0.6069
vn -0.0026 0.1680 0.9858
vn 0.5825 0.5075 0.6350
vn -0.0592 0.1581 0.9856
vn 0.4902 0.6014 -0.6309
vn -0.4193 -0.6752 -0.6069
vn 0.0533 0.3981 -0.9158
# 7 vertex normals

vt 0.2871 0.9246 0.0000
vt 0.2901 0.9234 0.0000
vt 0.2894 0.9214 0.0000
vt 0.2864 0.9258 0.0000
vt 0.2879 0.9220 0.0000
vt 0.2840 0.9258 0.0000
# 6 texture coords

o Pierna_izquierda006
g Pierna_izquierda006
usemtl Material___1
s 2
f 31/49/48 32/50/49 33/51/50 
f 34/52/51 32/50/49 31/49/48 
f 31/49/48 33/51/50 35/53/52 
f 31/49/53 35/53/52 36/54/54 
# 4 faces

#
# object Pierna_izquierda007
#

v  -0.2494 -0.9359 -0.6239
v  -0.0316 -0.6522 -0.6237
v  -0.0572 -0.9386 -0.6398
v  -0.0294 -0.9377 0.5802
v  -0.2225 -0.9350 0.5580
v  -0.0042 -0.6489 0.5783
v  -0.6301 -0.4018 0.3524
v  0.0517 -0.1618 0.3549
v  -0.6451 -0.4023 -0.3059
v  0.0335 -0.1647 -0.3416
v  -0.1509 1.0041 0.1557
v  -0.7430 -0.3739 0.0465
# 12 vertices

vn -0.0815 0.0631 -0.9947
vn -0.0141 -0.9999 0.0010
vn -0.0140 -0.9999 0.0010
vn -0.1140 0.0164 0.9934
vn -0.2833 0.1488 0.9474
vn -0.1534 0.4265 0.8914
vn -0.3531 0.2716 -0.8953
vn -0.2224 0.5104 -0.8307
vn -0.1749 0.3620 -0.9156
vn -0.8752 0.3979 -0.2752
vn -0.8696 0.3457 0.3524
# 11 vertex normals

vt 0.2702 0.9420 0.0000
vt 0.2650 0.9420 0.0000
vt 0.2686 0.9397 0.0000
vt 0.2836 0.9301 0.0000
vt 0.2849 0.9327 0.0000
vt 0.2837 0.9301 0.0000
vt 0.2874 0.9280 0.0000
vt 0.2864 0.9258 0.0000
vt 0.2901 0.9234 0.0000
vt 0.2843 0.9293 0.0000
vt 0.2840 0.9258 0.0000
vt 0.2871 0.9246 0.0000
vt 0.2861 0.9256 0.0000
vt 0.2721 0.9253 0.0000
vt 0.2685 0.9267 0.0000
vt 0.2698 0.9267 0.0000
# 16 texture coords

o Pierna_izquierda007
g Pierna_izquierda007
usemtl Material___1
s 2
f 37/55/55 38/56/55 39/57/55 
f 39/57/56 40/58/56 41/59/57 
f 41/59/57 37/55/56 39/57/56 
f 41/59/58 40/60/58 42/61/58 
f 43/62/59 41/59/59 42/61/59 
f 43/62/60 42/61/60 44/63/60 
f 45/62/61 38/64/61 37/59/61 
f 45/62/62 46/65/62 38/64/62 
f 45/62/63 47/66/63 46/65/63 
f 47/66/64 45/62/64 48/67/64 
f 47/68/65 48/69/65 43/70/65 
# 11 faces

