# 3ds Max Wavefront OBJ Exporter v0.99 - (c)2007 guruware
# File Created: 08.12.2022 00:40:14

mtllib megamanX_manoD.mtl

#
# object Pierna_izquierda021
#

v  -0.3937 -0.4021 0.0737
v  -0.1040 -0.4317 -0.0124
v  -0.3399 -0.6263 -0.0515
v  -0.2018 -0.6788 -0.1298
v  -0.2635 -0.9013 0.2033
v  -0.1513 -0.8620 0.2122
v  0.0157 -0.6212 0.5718
v  -0.0851 -0.9711 0.1269
v  0.3018 -0.6893 0.4683
v  0.0278 -0.9387 0.1041
v  0.1104 -1.0308 -0.0190
v  -0.0559 -0.6929 -0.2034
v  0.0610 -0.7055 -0.2971
v  -0.0896 -0.5296 -0.1808
v  0.0626 -0.6168 -0.3977
v  0.2958 -0.6222 -0.1265
v  0.2840 -0.7699 -0.0905
v  0.3679 -0.6331 0.0527
v  0.3273 -0.4592 -0.0394
v  0.3235 0.1094 0.0350
v  0.4837 -0.4485 -0.2002
v  0.3484 -0.3913 -0.4258
v  0.2868 -0.0106 -0.2359
v  0.0500 -0.0084 -0.2236
v  0.1770 -0.7887 -0.4211
v  -0.1992 -0.6754 -0.2379
v  -0.1337 -0.6641 -0.0777
v  -0.1899 -0.7939 -0.0629
v  -0.2373 -0.8281 -0.1517
v  0.2422 -0.8583 -0.2928
v  0.4203 -0.6565 0.2835
v  0.1707 0.1720 0.1853
v  0.2262 -0.9198 -0.0657
v  -0.1786 0.1647 0.1851
v  -0.2803 -0.5383 0.6234
v  -0.2826 0.1021 0.0507
v  -0.3976 -0.5352 0.5125
v  -0.4692 -0.7360 0.2613
v  -0.4243 -0.8067 0.2208
v  -0.3288 -0.7826 0.2538
v  -0.4496 -0.5503 -0.0061
v  -0.4837 -0.5359 0.2681
v  -0.4242 -0.3061 0.1359
v  -0.1923 0.0357 -0.1097
# 44 vertices

vn -0.6930 0.2348 -0.6816
vn -0.6403 0.1599 -0.7513
vn -0.1973 0.4744 -0.8579
vn -0.5813 -0.0394 -0.8127
vn -0.4025 -0.7250 -0.5589
vn -0.3114 -0.9502 -0.0120
vn -0.6337 -0.6132 -0.4716
vn -0.1791 -0.9476 0.2644
vn -0.0355 -0.7794 0.6255
vn -0.3075 -0.9513 -0.0190
vn 0.5599 -0.3328 0.7588
vn -0.0831 -0.9902 0.1118
vn -0.0676 -0.9854 -0.1560
vn -0.5580 -0.3590 -0.7482
vn -0.1107 -0.6163 -0.7797
vn -0.8130 0.1902 -0.5503
vn -0.5123 -0.0544 -0.8571
vn 0.5966 -0.6067 -0.5253
vn 0.8853 -0.4537 0.1022
vn 0.8001 -0.3141 -0.5110
vn 0.9523 -0.1160 -0.2821
vn 0.9835 -0.1138 0.1404
vn 0.9122 0.2633 0.3140
vn 0.9898 -0.1342 0.0487
vn 0.4092 0.1927 -0.8919
vn 0.9294 0.2740 -0.2474
vn -0.1455 0.3051 -0.9412
vn -0.4140 0.0850 -0.9063
vn 0.1154 -0.5135 -0.8503
vn -0.4896 -0.3044 -0.8170
vn -0.1196 0.9901 0.0730
vn -0.5437 0.8237 0.1613
vn -0.5225 0.8301 0.1948
vn -0.8608 0.3990 0.3161
vn -0.8658 0.3917 0.3114
vn 0.4946 -0.8687 -0.0247
vn 0.1319 -0.6938 0.7079
vn -0.2465 -0.9397 -0.2372
vn 0.1061 0.0672 0.9921
vn 0.9473 -0.2120 0.2401
vn 0.4027 0.3936 0.8264
vn 0.6659 -0.6254 -0.4069
vn -0.0860 0.9919 0.0939
vn 0.2985 0.4118 0.8610
vn -0.4159 0.4829 0.7706
vn -0.2720 -0.0472 0.9611
vn -0.9377 0.3473 -0.0051
vn -0.7876 0.0245 0.6156
vn -0.8730 -0.4399 0.2108
vn -0.3555 -0.9319 -0.0715
vn -0.4451 -0.8634 0.2374
vn -0.4798 -0.6556 -0.5831
vn -0.7028 0.1291 -0.6996
vn -0.9842 0.1369 0.1124
vn -0.9348 0.2400 -0.2617
vn -0.6153 -0.1399 -0.7757
# 56 vertex normals

vt 0.7324 0.4071 0.0000
vt 0.6773 0.4218 0.0000
vt 0.6998 0.3822 0.0000
vt 0.6754 0.3862 0.0000
vt 0.7084 0.4197 0.0000
vt 0.6963 0.4195 0.0000
vt 0.7047 0.3961 0.0000
vt 0.6746 0.4259 0.0000
vt 0.6529 0.3928 0.0000
vt 0.6596 0.4256 0.0000
vt 0.6374 0.4286 0.0000
vt 0.6512 0.3861 0.0000
vt 0.6286 0.4276 0.0000
vt 0.5594 0.3814 0.0000
vt 0.5684 0.3822 0.0000
vt 0.5617 0.3861 0.0000
vt 0.6009 0.3875 0.0000
vt 0.6155 0.4040 0.0000
vt 0.6241 0.3884 0.0000
vt 0.6045 0.3742 0.0000
vt 0.6484 0.3102 0.0000
vt 0.5839 0.3740 0.0000
vt 0.5739 0.3690 0.0000
vt 0.5830 0.3431 0.0000
vt 0.5701 0.3441 0.0000
vt 0.5691 0.3752 0.0000
vt 0.5623 0.3812 0.0000
vt 0.5899 0.3797 0.0000
vt 0.5897 0.3876 0.0000
vt 0.5716 0.3913 0.0000
vt 0.5821 0.3839 0.0000
vt 0.6395 0.3845 0.0000
vt 0.6806 0.3097 0.0000
vt 0.6239 0.4186 0.0000
vt 0.5471 0.3689 0.0000
vt 0.7354 0.3035 0.0000
vt 0.7428 0.3865 0.0000
vt 0.7581 0.3035 0.0000
vt 0.7641 0.3724 0.0000
vt 0.7474 0.4051 0.0000
vt 0.7350 0.4084 0.0000
vt 0.7234 0.4110 0.0000
vt 0.7187 0.3745 0.0000
vt 0.7563 0.3830 0.0000
vt 0.7862 0.3965 0.0000
vt 0.7781 0.3035 0.0000
vt 0.8260 0.3154 0.0000
vt 0.8057 0.3921 0.0000
vt 0.8256 0.3780 0.0000
# 49 texture coords

o Pierna_izquierda021
g Pierna_izquierda021
usemtl Material___1
s 2
f 1/1/1 2/2/2 3/3/3 
f 3/3/3 2/2/2 4/4/4 
f 4/4/5 5/5/6 3/3/7 
f 4/4/5 6/6/8 5/5/6 
f 5/5/6 6/6/8 7/7/9 
f 8/8/10 7/7/9 6/6/8 
f 8/8/10 9/9/11 7/7/9 
f 10/10/12 9/9/11 8/8/10 
f 11/11/13 9/9/11 10/10/12 
f 12/12/14 11/11/13 10/10/12 
f 12/12/14 13/13/15 11/11/13 
f 14/10/16 13/13/15 12/12/14 
f 14/14/16 15/15/17 13/16/15 
f 15/15/18 16/17/19 13/13/15 
f 13/13/15 16/17/19 17/18/20 
f 16/17/19 18/19/21 17/18/20 
f 19/20/22 18/19/21 16/17/19 
f 20/21/23 18/19/21 19/20/22 
f 20/21/23 19/20/22 21/22/24 
f 20/21/23 21/22/24 22/23/25 
f 20/21/23 22/23/25 23/24/26 
f 15/15/17 23/24/27 22/23/25 
f 24/25/28 23/24/27 15/15/17 
f 15/15/17 22/23/25 25/26/29 
f 26/27/30 15/15/17 25/26/29 
f 15/15/31 26/27/32 27/28/33 
f 27/28/33 26/27/32 28/29/34 
f 26/27/32 29/30/35 28/29/34 
f 30/31/36 28/29/37 29/30/38 
f 25/26/29 30/31/36 29/30/38 
f 21/22/24 30/31/36 25/26/29 
f 21/22/24 16/17/19 30/31/36 
f 28/29/37 30/31/36 16/17/19 
f 28/29/37 16/17/19 27/28/39 
f 29/30/38 26/27/30 25/26/29 
f 22/23/25 21/22/24 25/26/29 
f 20/21/23 31/32/40 18/19/21 
f 32/33/41 31/32/40 20/21/23 
f 32/33/41 9/9/11 31/32/40 
f 21/22/24 19/20/22 16/17/19 
f 18/19/21 31/32/40 17/18/20 
f 31/32/40 33/34/42 17/18/20 
f 31/32/40 11/11/13 33/34/42 
f 13/13/15 17/18/20 33/34/42 
f 15/15/31 27/28/33 16/17/43 
f 24/25/28 15/15/17 14/14/16 
f 24/25/28 14/14/16 2/35/2 
f 4/4/4 14/10/16 12/12/14 
f 12/12/14 8/8/10 4/4/4 
f 13/13/15 33/34/42 11/11/13 
f 11/11/13 31/32/40 9/9/11 
f 12/12/14 10/10/12 8/8/10 
f 7/7/44 9/9/11 32/33/41 
f 34/36/45 7/7/44 32/33/41 
f 35/37/46 7/7/44 34/36/45 
f 34/36/45 36/38/47 35/37/46 
f 37/39/48 35/37/46 36/38/47 
f 38/40/49 35/37/46 37/39/48 
f 39/41/50 35/37/46 38/40/49 
f 39/41/50 40/42/51 35/37/46 
f 3/3/52 40/42/51 39/41/50 
f 41/43/53 3/3/52 39/41/50 
f 35/37/46 40/42/51 5/5/6 
f 41/43/53 39/41/50 38/40/49 
f 42/44/54 41/43/53 38/40/49 
f 1/1/1 41/43/53 42/44/54 
f 43/45/55 1/1/1 42/44/54 
f 36/38/47 43/45/55 42/44/54 
f 36/38/47 44/46/56 43/45/55 
f 43/45/55 44/46/56 24/47/28 
f 43/45/55 24/47/28 1/48/1 
f 37/39/48 42/44/54 38/40/49 
f 36/38/47 42/44/54 37/39/48 
f 5/5/6 7/7/9 35/37/46 
f 4/4/4 8/8/10 6/6/8 
f 3/3/7 5/5/6 40/42/51 
f 2/2/2 14/10/16 4/4/4 
f 1/48/1 24/47/28 2/49/2 
f 41/43/53 1/1/1 3/3/3 
# 79 faces

