# 3ds Max Wavefront OBJ Exporter v0.99 - (c)2007 guruware
# File Created: 08.12.2022 00:38:11

mtllib megamanX_buster.mtl

#
# object Pierna_izquierda024
#

v  -0.2884 -0.3341 -0.0520
v  -0.1092 -0.3900 0.0727
v  -0.1243 -0.3480 0.1761
v  -0.3604 -0.2748 0.0111
v  -0.3247 -0.2717 -0.2421
v  -0.4124 -0.1905 -0.2428
v  -0.2030 -0.2328 -0.3857
v  -0.1445 -0.1100 -0.2580
v  0.0094 -0.2448 -0.3992
v  0.0021 -0.1182 -0.2672
v  0.0316 -0.1578 -0.4514
v  -0.2491 -0.1420 -0.4337
v  0.1835 -0.3004 -0.2742
v  0.2652 -0.2287 -0.2856
v  0.2223 -0.3630 -0.0842
v  0.3172 -0.3130 -0.0317
v  0.1032 -0.4020 0.0593
v  0.1563 -0.3639 0.1584
v  -0.0792 -0.2187 0.0615
v  0.0675 -0.2270 0.0523
v  0.1495 -0.1995 -0.0473
v  -0.2045 -0.1795 -0.0250
v  0.1224 -0.1549 -0.1798
v  -0.2316 -0.1349 -0.1575
# 24 vertices

vn -0.5840 -0.8065 0.0923
vn -0.2548 -0.9084 0.3315
vn -0.2401 -0.9112 0.3347
vn -0.5890 -0.8041 0.0808
vn -0.6310 -0.6817 -0.3703
vn -0.6281 -0.6828 -0.3732
vn -0.3060 -0.5600 -0.7699
vn 0.3518 -0.7498 0.5603
vn 0.1942 -0.9499 0.2450
vn 0.8040 -0.5916 0.0607
vn -0.2965 -0.6972 0.6527
vn -0.2437 -0.9268 0.2857
vn 0.1359 -0.5345 -0.8342
vn 0.1545 -0.5370 -0.8293
vn -0.3406 -0.5680 -0.7493
vn 0.4864 -0.6484 -0.5856
vn 0.5023 -0.6621 -0.5561
vn 0.5235 -0.8395 -0.1459
vn 0.5135 -0.8507 -0.1125
vn 0.1977 -0.9464 0.2553
vn 0.2143 -0.9447 0.2483
vn 0.2432 -0.1046 -0.9643
vn 0.1295 -0.5583 -0.8195
vn -0.3236 -0.5418 -0.7757
vn -0.4514 -0.1282 -0.8831
vn -0.6403 -0.6693 -0.3768
vn 0.4565 -0.6741 -0.5807
vn -0.5611 -0.8256 0.0602
vn 0.5255 -0.8415 -0.1253
vn -0.8900 -0.3232 -0.3215
vn 0.7534 -0.3029 -0.5836
vn -0.7849 -0.5341 0.3141
# 32 vertex normals

vt 0.9710 0.1389 0.0000
vt 0.9474 0.1389 0.0000
vt 0.9474 0.1269 0.0000
vt 0.9710 0.1269 0.0000
vt 0.9941 0.1389 0.0000
vt 0.9941 0.1269 0.0000
vt 0.9168 0.1269 0.0000
vt 0.9244 0.1389 0.0000
vt 0.9168 0.1389 0.0000
vt 0.9524 0.2214 0.0000
vt 0.9524 0.2789 0.0000
vt 0.9009 0.2224 0.0000
vt 0.9009 0.2800 0.0000
vt 0.9244 0.1269 0.0000
vt 0.8177 0.2562 0.0000
vt 0.8233 0.2842 0.0000
vt 0.8473 0.3001 0.0000
vt 0.8755 0.2946 0.0000
vt 0.8339 0.2321 0.0000
vt 0.8917 0.2705 0.0000
vt 0.8622 0.2263 0.0000
vt 0.8861 0.2423 0.0000
# 22 texture coords

o Pierna_izquierda024
g Pierna_izquierda024
usemtl Material___1
s 2
f 1/1/1 2/2/2 3/3/3 
f 3/3/3 4/4/4 1/1/1 
f 5/5/5 1/1/1 4/4/4 
f 6/6/6 5/5/5 4/4/4 
f 6/7/6 7/8/7 5/9/5 
f 7/10/8 8/11/9 5/12/10 
f 9/10/11 10/11/12 8/13/9 
f 8/13/9 7/12/8 9/10/11 
f 11/3/13 9/2/14 7/8/7 
f 7/8/7 12/14/15 11/3/13 
f 9/2/14 11/3/13 13/1/16 
f 11/3/13 14/4/17 13/1/16 
f 14/4/17 15/5/18 13/1/16 
f 14/4/17 16/6/19 15/5/18 
f 15/9/18 16/7/19 17/8/20 
f 16/7/19 18/14/21 17/8/20 
f 17/8/20 18/14/21 3/3/3 
f 3/3/3 2/2/2 17/8/20 
f 2/10/22 19/11/23 20/13/24 
f 20/13/24 17/12/25 2/10/22 
f 21/13/26 17/10/25 20/11/24 
f 21/15/26 20/16/24 19/17/23 
f 19/17/23 22/18/27 21/15/26 
f 23/19/28 21/15/26 22/18/27 
f 22/18/27 24/20/29 23/19/28 
f 23/13/28 15/10/30 21/11/26 
f 24/11/29 22/13/27 1/12/31 
f 1/10/31 22/11/27 2/12/22 
f 22/11/27 19/13/23 2/12/22 
f 10/21/12 23/19/28 24/20/29 
f 24/20/29 8/22/9 10/21/12 
f 13/10/32 23/11/28 10/13/12 
f 21/13/26 15/12/30 17/10/25 
f 23/13/28 13/12/32 15/10/30 
f 9/12/11 13/10/32 10/13/12 
f 8/11/9 24/13/29 5/12/10 
f 6/7/6 12/14/15 7/8/7 
f 24/11/29 1/12/31 5/10/10 
# 38 faces

#
# object Pierna_izquierda023
#

v  0.4585 0.1848 0.1877
v  0.2544 0.1211 0.4292
v  0.1563 -0.3639 0.1584
v  0.3172 -0.3130 -0.0317
v  -0.0970 0.1410 0.4514
v  -0.1243 -0.3480 0.1761
v  -0.3935 0.2329 0.2415
v  -0.3604 -0.2748 0.0111
v  -0.4585 0.3389 -0.0763
v  -0.4124 -0.1905 -0.2428
v  -0.2539 0.4020 -0.3154
v  -0.2491 -0.1420 -0.4337
v  0.0976 0.3822 -0.3376
v  0.0316 -0.1578 -0.4514
v  0.3935 0.2908 -0.1301
v  0.2652 -0.2287 -0.2856
# 16 vertices

vn 0.9296 -0.3332 0.1577
vn 0.4210 -0.5056 0.7531
vn 0.4172 -0.5060 0.7549
vn 0.9367 -0.3242 0.1322
vn -0.3021 -0.4548 0.8378
vn -0.3150 -0.4512 0.8350
vn -0.8444 -0.2669 0.4645
vn -0.8499 -0.2628 0.4568
vn -0.9679 -0.0055 -0.2513
vn -0.9634 0.0002 -0.2681
vn -0.4540 0.1854 -0.8715
vn -0.4407 0.1871 -0.8779
vn 0.2900 0.1632 -0.9430
vn 0.2861 0.1629 -0.9442
vn 0.8349 -0.0409 -0.5488
vn 0.8200 -0.0314 -0.5715
# 16 vertex normals

vt 0.9169 0.0390 0.0000
vt 0.9240 0.0390 0.0000
vt 0.9244 0.1269 0.0000
vt 0.9168 0.1269 0.0000
vt 0.9470 0.0191 0.0000
vt 0.9474 0.1269 0.0000
vt 0.9712 0.0191 0.0000
vt 0.9710 0.1269 0.0000
vt 0.9942 0.0390 0.0000
vt 0.9941 0.1269 0.0000
# 10 texture coords

o Pierna_izquierda023
g Pierna_izquierda023
usemtl Material___1
s 2
f 25/23/33 26/24/34 27/25/35 
f 27/25/35 28/26/36 25/23/33 
f 27/25/35 26/24/34 29/27/37 
f 29/27/37 30/28/38 27/25/35 
f 31/29/39 30/28/38 29/27/37 
f 31/29/39 32/30/40 30/28/38 
f 33/31/41 34/32/42 32/30/40 
f 32/30/40 31/29/39 33/31/41 
f 35/24/43 36/25/44 34/26/42 
f 34/26/42 33/23/41 35/24/43 
f 37/27/45 38/28/46 36/25/44 
f 36/25/44 35/24/43 37/27/45 
f 38/28/46 37/27/45 39/29/47 
f 38/28/46 39/29/47 40/30/48 
f 39/29/47 25/31/33 28/32/36 
f 28/32/36 40/30/48 39/29/47 
# 16 faces

