# 3ds Max Wavefront OBJ Exporter v0.99 - (c)2007 guruware
# File Created: 08.12.2022 00:35:30

mtllib megamanX_piernaD.mtl

#
# object Pierna_izquierda010
#

v  -0.2894 -3.2594 0.1307
v  0.0172 -3.2461 0.0014
v  0.0359 -3.3764 0.1124
v  -0.2116 -3.1660 0.0122
v  -0.4507 -2.9266 0.1144
v  -0.3264 -2.9356 -0.0043
v  -0.3481 -2.5880 0.0174
v  -0.2499 -2.7014 -0.0664
v  -0.0448 -2.4283 -0.0493
v  -0.0403 -2.5893 -0.1101
v  0.2831 -2.5390 -0.0392
v  0.1863 -2.6664 -0.0962
v  0.4456 -2.8617 0.0166
v  0.2986 -2.8889 -0.0554
v  0.3418 -3.2077 0.0760
v  0.2269 -3.1281 -0.0159
# 16 vertices

vn -0.4637 -0.5184 -0.7185
vn -0.0180 -0.4825 -0.8757
vn -0.0099 -0.6425 -0.7662
vn -0.3491 -0.4007 -0.8471
vn -0.6813 -0.1835 -0.7086
vn -0.5209 -0.1913 -0.8319
vn -0.5252 0.1735 -0.8331
vn -0.3768 0.0339 -0.9257
vn -0.1066 0.3505 -0.9305
vn -0.0901 0.1494 -0.9847
vn 0.3001 0.2005 -0.9326
vn 0.1957 0.0491 -0.9794
vn 0.4559 -0.1129 -0.8828
vn 0.2941 -0.1412 -0.9453
vn 0.3532 -0.4404 -0.8254
vn 0.2353 -0.3444 -0.9089
vn 0.0716 0.1742 0.9821
vn 0.0186 0.1714 0.9850
vn 0.0218 0.1704 0.9851
vn -0.0012 0.1697 0.9855
vn 0.0739 0.1733 0.9821
vn 0.1489 0.1772 0.9728
vn 0.1461 0.1780 0.9731
vn 0.2839 0.1837 0.9411
# 24 vertex normals

vt 0.3456 0.9139 0.0000
vt 0.3721 0.9204 0.0000
vt 0.3456 0.9200 0.0000
vt 0.3721 0.9141 0.0000
vt 0.3456 0.9046 0.0000
vt 0.3721 0.9049 0.0000
vt 0.3456 0.8975 0.0000
vt 0.3721 0.8978 0.0000
vt 0.3459 0.8925 0.0000
vt 0.3724 0.8928 0.0000
vt -6.3410 2.9452 0.0000
vt -1.3054 5.7578 0.0000
vt -2.2260 16.9029 0.0000
vt 0.3942 0.8985 0.0000
vt 0.3942 0.9015 0.0000
vt 0.3849 0.8985 0.0000
vt 0.3849 0.8926 0.0000
vt -2.6912 16.8593 0.0000
vt -1.7252 5.7181 0.0000
vt -0.0217 11.4822 0.0000
vt 0.3942 0.8926 0.0000
vt -9.1876 11.0264 0.0000
vt -6.7302 5.4673 0.0000
vt -7.1151 16.6822 0.0000
# 24 texture coords

o Pierna_izquierda010
g Pierna_izquierda010
usemtl wire_000000000
s 1
f 1/1/1 2/2/2 3/3/3 
f 1/1/1 4/4/4 2/2/2 
f 5/5/5 4/4/4 1/1/1 
f 5/5/5 6/6/6 4/4/4 
f 5/5/5 7/7/7 6/6/6 
f 7/7/7 8/8/8 6/6/6 
f 7/7/7 9/9/9 8/8/8 
f 8/8/8 9/9/9 10/10/10 
f 9/9/9 11/7/11 10/10/10 
f 10/10/10 11/7/11 12/8/12 
f 12/8/12 11/7/11 13/5/13 
f 12/8/12 13/5/13 14/6/14 
f 14/6/14 13/5/13 15/1/15 
f 16/4/16 14/6/14 15/1/15 
f 3/3/3 16/4/16 15/1/15 
s 4
f 3/11/17 15/12/18 11/13/19 
s 1
f 12/14/12 14/15/14 16/16/16 
f 2/17/2 12/14/12 16/16/16 
s 4
f 11/18/19 15/19/18 13/20/20 
s 1
f 10/21/10 12/14/12 2/17/2 
f 9/9/21 3/3/17 11/7/19 
f 8/14/8 10/21/10 4/16/4 
f 7/7/22 1/1/23 9/9/21 
f 6/15/6 8/14/8 4/16/4 
s 4
f 5/22/24 1/23/23 7/24/22 
s 1
f 4/16/4 10/21/10 2/17/2 
f 1/1/23 3/3/17 9/9/21 
f 2/2/2 16/4/16 3/3/3 
# 28 faces

#
# object Pierna_izquierda009
#

v  -0.2098 -2.6466 1.3460
v  -0.0953 -2.8634 1.4109
v  -0.1387 -2.4084 1.2999
v  0.1327 -2.9416 1.4157
v  0.1402 -3.1096 1.3555
v  -0.1923 -2.9993 1.3459
v  -0.2531 -2.3392 1.1843
v  -0.3554 -2.6830 1.2592
v  0.0736 -2.2954 1.2604
v  0.0537 -2.1775 1.1306
v  0.2960 -2.3810 1.2304
v  0.3777 -2.2991 1.0971
v  0.4070 -2.6054 1.2579
v  0.5387 -2.6239 1.1374
v  0.3395 -2.8361 1.3413
v  0.4383 -2.9594 1.2565
# 16 vertices

vn -0.3854 0.1807 0.9049
vn -0.2058 -0.0203 0.9784
vn -0.2525 0.4318 0.8659
vn 0.1499 -0.1055 0.9831
vn 0.1585 -0.3275 0.9315
vn -0.3384 -0.1937 0.9208
vn -0.0279 -0.2379 -0.9709
vn -0.1204 -0.2445 -0.9621
vn -0.0333 -0.2405 -0.9701
vn 0.0674 -0.2314 -0.9705
vn -0.5379 0.1488 0.8298
vn -0.4169 0.5353 0.7346
vn 0.0878 0.5713 0.8161
vn 0.0571 0.7382 0.6721
vn 0.4105 0.4604 0.7871
vn 0.5046 0.5617 0.6556
vn 0.5346 0.2500 0.8073
vn 0.6758 0.2331 0.6993
vn 0.4519 0.0392 0.8912
vn 0.5728 -0.1089 0.8125
vn -0.2038 -0.2473 -0.9473
vn -0.2702 -0.2492 -0.9300
vn -0.2039 -0.2474 -0.9472
vn -0.1180 -0.2432 -0.9628
# 24 vertex normals

vt 0.3942 0.9015 0.0000
vt 0.3830 0.8976 0.0000
vt 0.3942 0.8985 0.0000
vt 0.3830 0.8917 0.0000
vt 0.3721 0.9141 0.0000
vt 0.3456 0.9200 0.0000
vt 0.3721 0.9204 0.0000
vt 0.3456 0.9139 0.0000
vt 12.7789 13.3619 0.0000
vt 6.4814 0.3240 0.0000
vt 11.9249 2.1912 0.0000
vt 14.8247 7.1717 0.0000
vt 13.2345 12.9755 0.0000
vt 12.0546 1.8345 0.0000
vt 0.3456 0.9046 0.0000
vt 0.3721 0.9049 0.0000
vt 0.3721 0.8978 0.0000
vt 0.3456 0.8975 0.0000
vt 0.3724 0.8928 0.0000
vt 0.3459 0.8925 0.0000
vt 0.3942 0.8926 0.0000
vt 1.0792 14.3250 0.0000
vt -1.2748 8.8178 0.0000
vt 0.8541 3.1282 0.0000
# 24 texture coords

o Pierna_izquierda009
g Pierna_izquierda009
usemtl wire_000000000
s 1
f 17/25/25 18/26/26 19/27/27 
f 19/27/27 18/26/26 20/28/28 
f 18/29/26 21/30/29 20/31/28 
f 22/32/30 21/30/29 18/29/26 
s 4
f 23/33/31 21/34/32 22/35/33 
f 24/36/34 23/37/31 22/38/33 
s 1
f 24/39/35 22/32/30 17/40/25 
f 24/39/35 19/41/27 23/42/36 
f 23/42/36 19/41/27 25/43/37 
f 26/44/38 23/42/36 25/43/37 
f 26/44/38 25/43/37 27/41/39 
f 28/42/40 26/44/38 27/41/39 
f 28/42/40 27/41/39 29/40/41 
f 28/42/40 29/40/41 30/39/42 
f 31/29/43 30/39/42 29/40/41 
f 31/29/43 32/32/44 30/39/42 
f 20/31/28 32/32/44 31/29/43 
f 25/45/37 20/28/28 31/26/43 
s 4
f 28/46/45 30/47/46 32/48/47 
s 1
f 27/27/39 31/26/43 29/25/41 
f 28/42/45 32/32/47 21/30/32 
f 21/30/32 26/44/48 28/42/45 
f 25/45/37 31/26/43 27/27/39 
f 23/42/31 26/44/48 21/30/32 
f 20/31/28 21/30/29 32/32/44 
f 19/27/27 20/28/28 25/45/37 
f 17/40/25 22/32/30 18/29/26 
f 24/39/35 17/40/25 19/41/27 
# 28 faces

#
# object Pierna_izquierda008
#

v  0.4965 0.5009 0.0707
v  0.4609 0.4107 -0.3593
v  0.1990 0.0912 0.3090
v  0.6417 0.4660 0.0648
v  0.6063 0.3734 -0.3649
v  0.1341 -0.0525 -0.3837
v  0.3056 -0.1457 -0.4188
v  -0.3241 -0.5798 -0.2949
v  -0.1792 -0.1230 -0.3097
v  -0.1107 0.0226 0.3961
v  0.3529 0.0222 0.3409
v  -0.2693 -0.3793 0.5984
v  -0.5060 -0.5567 0.4990
v  -0.2668 -1.2630 0.9120
v  -0.6473 -1.3654 0.6857
v  -0.5889 -3.2030 1.0348
v  -0.6681 -3.3234 0.4177
v  -0.7250 -1.4841 0.0614
v  -0.3498 -1.4985 -0.1783
v  0.3607 -1.4383 -0.2219
v  0.2948 -3.6563 0.1455
v  -0.2185 -3.6299 0.1865
v  0.3992 -3.3946 1.3871
v  -0.1147 -3.3691 1.4214
v  0.4379 -1.2302 0.7544
v  0.6727 -2.9910 1.1362
v  0.9272 -2.6461 0.6721
v  0.5830 -3.2158 0.0769
v  0.8846 -2.7426 0.2164
v  0.6775 -1.3708 -0.0298
v  0.7201 -1.2742 0.4260
v  -0.5815 -0.6724 -0.1032
# 32 vertices

vn -0.4071 0.9001 -0.1551
vn -0.4013 0.9028 -0.1546
vn -0.2248 0.8258 0.5173
vn 0.2226 0.9500 -0.2188
vn 0.2341 0.9462 -0.2232
vn -0.1668 0.0667 -0.9837
vn -0.0213 0.0677 -0.9975
vn 0.6684 0.0295 -0.7432
vn 0.0807 -0.0333 -0.9962
vn -0.3935 -0.0030 -0.9193
vn -0.5395 0.5862 -0.6045
vn -0.5510 0.8259 -0.1196
vn -0.3793 0.8065 0.4535
vn 0.2064 0.4021 0.8920
vn -0.2801 0.4422 0.8521
vn -0.8238 0.3962 0.4055
vn -0.1993 0.2743 0.9408
vn -0.8499 0.1610 0.5017
vn -0.8042 -0.3453 0.4837
vn -0.8427 -0.4792 -0.2454
vn -0.9100 -0.0221 -0.4141
vn -0.3102 -0.1436 -0.9398
vn 0.2378 -0.1332 -0.9621
vn -0.0546 -0.1693 -0.9840
vn -0.2711 -0.1786 -0.9458
vn 0.4191 -0.8949 0.1535
vn -0.2796 -0.4829 0.8298
vn -0.2214 -0.9502 0.2191
vn 0.4497 -0.8808 0.1480
vn 0.1922 0.2492 0.9492
vn 0.4865 0.2667 0.8320
vn 0.8199 -0.1460 0.5535
vn 0.9678 -0.0918 0.2345
vn 0.6133 -0.4366 -0.6582
vn 0.8837 -0.2177 -0.4143
vn 0.8453 -0.0181 -0.5339
vn 0.9465 0.1476 0.2870
vn 0.7713 0.2893 0.5669
vn -0.8819 0.2382 -0.4069
vn 0.1380 0.4212 0.8964
# 40 vertex normals

vt 0.9941 0.4752 0.0000
vt 0.9115 0.4752 0.0000
vt 0.9941 0.5188 0.0000
vt 0.5597 0.0063 0.0000
vt 0.5579 0.0028 0.0000
vt 0.5591 0.0022 0.0000
vt 0.5308 0.0028 0.0000
vt 0.5725 0.0068 0.0000
vt 0.5719 0.0027 0.0000
vt 0.5300 0.0591 0.0000
vt 0.5528 0.0053 0.0000
vt 0.5220 0.0678 0.0000
vt 0.5112 0.1002 0.0000
vt 0.5254 0.0651 0.0000
vt 0.9115 0.5188 0.0000
vt 0.9115 0.5246 0.0000
vt 0.9941 0.5246 0.0000
vt 0.5301 0.0678 0.0000
vt 0.5272 0.1002 0.0000
vt 0.5068 0.1076 0.0000
vt 0.5279 0.1660 0.0000
vt 0.5064 0.1658 0.0000
vt 0.5079 0.1740 0.0000
vt 0.5068 0.3285 0.0000
vt 0.5276 0.1736 0.0000
vt 0.5087 0.1716 0.0000
vt 0.5534 0.3007 0.0000
vt 0.5096 0.3010 0.0000
vt 0.5530 0.1711 0.0000
vt 0.5164 0.1736 0.0000
vt 0.5120 0.1660 0.0000
vt 0.5311 0.1676 0.0000
vt 0.5308 0.1736 0.0000
vt 0.5290 0.3280 0.0000
vt 0.5238 0.1748 0.0000
vt 0.5363 0.3291 0.0000
vt 0.5023 0.3206 0.0000
vt 0.9353 0.3837 0.0000
vt 0.9357 0.3952 0.0000
vt 0.9073 0.3956 0.0000
vt 0.9075 0.3839 0.0000
vt 0.9074 0.4051 0.0000
vt 0.5394 0.3276 0.0000
vt 0.5371 0.1736 0.0000
vt 0.5361 0.3028 0.0000
vt 0.5620 0.3026 0.0000
vt 0.9360 0.3559 0.0000
vt 0.9355 0.3705 0.0000
vt 0.9079 0.3709 0.0000
vt 0.9077 0.3561 0.0000
vt 0.5587 0.1736 0.0000
vt 0.5623 0.1739 0.0000
vt 0.5584 0.3024 0.0000
vt 0.5585 0.1682 0.0000
vt 0.5286 0.0022 0.0000
vt 0.5771 0.1661 0.0000
vt 0.5335 0.1680 0.0000
vt 0.5414 0.3037 0.0000
vt 0.5590 0.0037 0.0000
vt 0.5373 0.1691 0.0000
vt 0.5585 0.1697 0.0000
vt 0.5374 0.1676 0.0000
vt 0.5505 0.1652 0.0000
vt 0.5063 0.1657 0.0000
vt 0.5494 0.1071 0.0000
vt 0.9366 0.4049 0.0000
vt 0.9115 0.5846 0.0000
vt 0.9941 0.5846 0.0000
vt 0.5747 0.0039 0.0000
vt 0.5741 0.1699 0.0000
vt 0.5335 0.0039 0.0000
# 71 texture coords

o Pierna_izquierda008
g Pierna_izquierda008
usemtl Material___1
s 2
f 33/49/49 34/50/50 35/51/51 
f 34/52/50 33/53/49 36/54/52 
f 37/55/53 34/56/50 36/57/52 
f 38/58/54 34/59/55 37/54/56 
f 38/58/54 37/54/56 39/60/57 
f 40/61/58 38/58/54 39/60/57 
f 40/61/58 41/62/59 38/58/54 
f 38/63/60 41/64/59 35/51/51 
f 41/64/59 42/65/61 35/51/51 
f 42/62/61 43/66/62 35/58/51 
f 44/67/63 43/66/62 42/62/61 
f 42/62/61 45/68/64 44/67/63 
f 45/68/64 46/69/65 44/67/63 
f 47/70/66 46/69/65 45/68/64 
f 47/71/66 48/72/67 46/73/65 
f 47/74/66 49/75/68 48/76/67 
f 47/74/66 50/77/69 49/75/68 
f 50/71/69 51/78/70 49/72/68 
f 50/70/69 40/61/58 51/79/70 
f 51/79/70 40/61/58 52/80/71 
f 51/78/70 52/81/71 53/82/72 
f 51/83/70 53/84/72 54/85/73 
f 55/86/74 56/87/75 54/88/76 
f 54/88/76 53/89/77 55/86/74 
f 54/88/76 56/87/75 49/90/68 
f 46/73/65 56/82/75 55/91/78 
f 46/73/65 55/91/78 57/92/79 
f 55/91/78 58/93/80 57/92/79 
f 57/92/79 58/93/80 59/94/81 
f 59/95/81 58/96/80 60/97/82 
f 59/95/81 60/97/82 61/98/83 
f 62/99/84 63/100/85 59/94/81 
f 59/94/81 61/101/83 62/99/84 
f 52/81/71 62/99/84 61/101/83 
f 52/80/71 37/54/56 62/102/84 
f 37/103/56 63/104/85 62/105/84 
f 52/81/71 61/101/83 60/106/82 
f 58/96/80 55/86/74 53/89/77 
f 53/89/77 60/97/82 58/96/80 
f 57/92/79 59/94/81 63/99/85 
f 36/107/86 57/108/79 63/109/85 
f 43/66/62 57/110/79 36/54/86 
f 53/82/72 52/81/71 60/106/82 
f 50/70/69 64/68/87 40/61/58 
f 49/72/68 51/78/70 54/82/73 
f 50/111/69 47/112/66 45/68/64 
f 45/68/64 64/113/87 50/111/69 
f 49/90/68 56/87/75 48/114/67 
f 48/72/67 56/82/75 46/73/65 
f 44/67/63 46/69/65 57/110/79 
f 42/65/61 64/115/87 45/116/64 
f 44/67/63 57/110/79 43/66/62 
f 35/58/51 43/66/62 36/54/86 
f 42/65/61 41/64/59 64/115/87 
f 64/68/87 41/62/59 40/61/58 
f 40/61/58 39/60/57 52/80/71 
f 39/60/57 37/54/56 52/80/71 
f 36/117/86 63/118/85 37/119/56 
f 35/58/51 36/54/86 33/59/88 
f 34/50/50 38/63/60 35/51/51 
# 60 faces

