# 3ds Max Wavefront OBJ Exporter v0.99 - (c)2007 guruware
# File Created: 08.12.2022 00:32:24

mtllib megamanX_musloI.mtl

#
# object Pierna_izquierda020
#

v  -0.3338 -0.3152 -0.3821
v  -0.4606 -1.5574 -0.5761
v  -0.4353 -0.4079 -0.1709
v  -0.1152 -1.3841 -0.6938
v  0.0336 -0.1629 -0.4658
v  -0.0878 0.3619 -0.2370
v  0.3250 -0.1317 -0.2866
v  0.2686 0.3553 -0.1907
v  0.3610 -0.2364 -0.0561
v  0.3609 0.2211 -0.0280
v  0.3150 -0.1402 0.1490
v  0.1614 -0.3284 0.1041
v  0.0336 -1.4330 -0.1001
v  0.1682 -1.1893 -0.2350
v  0.1327 -1.1369 -0.4992
v  0.1294 -1.3357 -0.1889
v  -0.1326 -0.4084 0.2304
v  0.1497 -0.2909 0.2277
v  -0.1010 -0.3525 0.2824
v  -0.3786 -0.2683 0.2133
v  -0.4696 -1.6109 -0.3199
v  -0.3318 -1.5833 -0.1552
v  -0.3956 -0.0143 -0.0350
v  0.0450 -1.3112 -0.6272
# 24 vertices

vn -0.6689 0.2558 -0.6980
vn -0.8762 0.1168 -0.4675
vn -0.9992 0.0089 0.0386
vn -0.1292 0.2236 -0.9661
vn 0.1292 0.2853 -0.9497
vn -0.1595 0.3740 -0.9136
vn 0.8178 0.1467 -0.5565
vn 0.5170 0.1772 -0.8374
vn 0.9697 -0.1847 0.1597
vn 0.9364 0.0218 -0.3503
vn 0.8678 -0.3692 0.3326
vn 0.6204 -0.5129 0.5933
vn 0.3108 -0.2787 0.9087
vn 0.9481 -0.2127 0.2362
vn 0.7595 0.0167 -0.6503
vn 0.6373 0.0728 0.7671
vn -0.1575 -0.5504 0.8199
vn 0.5280 -0.7876 0.3177
vn 0.0573 -0.6963 0.7154
vn -0.7725 -0.5218 0.3618
vn -0.9522 -0.0199 0.3047
vn -0.5583 -0.1717 0.8117
vn -0.9267 0.2623 -0.2692
vn 0.0866 0.5612 -0.8232
# 24 vertex normals

vt 0.4681 0.3101 0.0000
vt 0.4648 0.4503 0.0000
vt 0.4789 0.3101 0.0000
vt 0.4614 0.4514 0.0000
vt 0.4605 0.3124 0.0000
vt 0.4577 0.2370 0.0000
vt 0.4441 0.3138 0.0000
vt 0.4447 0.2370 0.0000
vt 0.3818 0.2898 0.0000
vt 0.3843 0.2369 0.0000
vt 0.3668 0.2370 0.0000
vt 0.3652 0.2657 0.0000
vt 0.3661 0.4461 0.0000
vt 0.3804 0.4221 0.0000
vt 0.4418 0.4218 0.0000
vt 0.3816 0.4396 0.0000
vt 0.3478 0.2588 0.0000
vt 0.3458 0.2365 0.0000
vt 0.3488 0.2363 0.0000
vt 0.4768 0.2363 0.0000
vt 0.4958 0.3131 0.0000
vt 0.4968 0.2366 0.0000
vt 0.4780 0.4498 0.0000
vt 0.4960 0.4508 0.0000
vt 0.4662 0.2365 0.0000
vt 0.3505 0.4503 0.0000
vt 0.4428 0.4508 0.0000
# 27 texture coords

o Pierna_izquierda020
g Pierna_izquierda020
usemtl Material___1
s 2
f 1/1/1 2/2/2 3/3/3 
f 2/2/2 1/1/1 4/4/4 
f 1/1/1 5/5/5 4/4/4 
f 1/1/1 6/6/6 5/5/5 
f 6/6/6 7/7/7 5/5/5 
f 6/6/6 8/8/8 7/7/7 
f 8/8/8 9/9/9 7/7/7 
f 8/8/8 10/10/10 9/9/9 
f 10/10/10 11/11/11 9/9/9 
f 11/11/11 12/12/12 9/9/9 
f 13/13/13 9/9/9 12/12/12 
f 9/9/9 13/13/13 14/14/14 
f 9/9/9 14/14/14 15/15/15 
f 13/13/13 16/16/16 14/14/14 
f 17/17/17 13/13/13 12/12/12 
f 12/12/12 18/18/18 17/17/17 
f 18/18/18 19/19/19 17/17/17 
f 20/20/20 17/21/17 19/22/19 
f 3/3/3 17/21/17 20/20/20 
f 3/3/3 21/23/21 17/21/17 
f 17/21/17 21/23/21 22/24/22 
f 23/25/23 3/3/3 20/20/20 
f 22/26/22 13/13/13 17/17/17 
f 11/11/11 18/18/18 12/12/12 
f 7/7/7 9/9/9 15/15/15 
f 4/4/4 7/7/7 15/15/15 
f 4/4/4 15/15/15 24/27/24 
f 6/6/6 1/1/1 23/25/23 
f 4/4/4 5/5/5 7/7/7 
f 23/25/23 1/1/1 3/3/3 
f 3/3/3 2/2/2 21/23/21 
# 31 faces

#
# object Pierna_izquierda019
#

v  0.0683 -1.8782 -0.8944
v  0.3054 -1.4442 -0.6201
v  0.4058 -1.7194 -0.7378
v  0.4696 -1.7066 -0.3086
v  0.3695 -1.4907 -0.2904
v  0.2061 -1.8169 -0.1325
# 6 vertices

vn 0.1961 0.4451 -0.8737
vn 0.7801 0.4726 -0.4101
vn 0.5582 0.4900 -0.6696
vn 0.8446 0.3461 0.4084
vn 0.8787 0.3834 0.2845
vn 0.5010 0.1606 0.8504
# 6 vertex normals

vt 0.3781 0.8757 0.0000
vt 0.3633 0.8418 0.0000
vt 0.3638 0.8757 0.0000
vt 0.3594 0.8757 0.0000
vt 0.3594 0.8418 0.0000
vt 0.3692 0.8757 0.0000
# 6 texture coords

o Pierna_izquierda019
g Pierna_izquierda019
usemtl Material___1
s 2
f 25/28/25 26/29/26 27/30/27 
f 26/29/26 28/31/28 27/30/27 
f 26/29/26 29/32/29 28/31/28 
f 30/33/30 28/31/28 29/32/29 
# 4 faces

#
# object Pierna_izquierda018
#

v  0.0336 -1.4330 -0.1001
v  0.0554 -1.5537 -0.0840
v  0.1294 -1.3357 -0.1889
v  -0.3318 -1.5833 -0.1552
v  -0.2779 -2.0611 -0.2067
v  -0.4381 -2.1579 -0.3751
v  -0.4696 -1.6109 -0.3199
v  -0.4606 -1.5574 -0.5761
v  -0.4489 -2.1830 -0.7299
v  -0.0726 -1.4990 -0.7723
v  -0.1152 -1.3841 -0.6938
v  0.0891 -1.3962 -0.6628
v  0.0450 -1.3112 -0.6272
v  0.2450 -1.2166 -0.5009
v  0.1327 -1.1369 -0.4992
v  0.2787 -1.2504 -0.2893
v  0.1682 -1.1893 -0.2350
v  0.2093 -1.3907 -0.1976
v  0.3695 -1.4907 -0.2904
v  0.2061 -1.8169 -0.1325
v  0.3054 -1.4442 -0.6201
v  0.0683 -1.8782 -0.8944
# 22 vertices

vn 0.2780 0.1762 0.9443
vn 0.1552 0.0466 0.9868
vn 0.3157 0.2613 0.9122
vn -0.4396 -0.1079 0.8917
vn -0.4812 -0.1636 0.8612
vn -0.9474 -0.0815 0.3096
vn -0.9395 -0.0876 0.3311
vn -0.8264 0.1249 -0.5491
vn -0.8672 0.0862 -0.4904
vn -0.1090 0.3949 -0.9122
vn -0.1441 0.4982 -0.8550
vn 0.2415 0.4909 -0.8371
vn 0.2406 0.4715 -0.8484
vn 0.6709 0.6203 -0.4063
vn 0.4972 0.7357 -0.4600
vn 0.7684 0.5266 0.3636
vn 0.5548 0.6166 0.5585
vn 0.4701 0.2069 0.8580
vn 0.8048 0.2554 0.5357
vn 0.2053 -0.0625 0.9767
vn 0.5696 0.4649 -0.6778
vn -0.1682 0.2450 -0.9548
# 22 vertex normals

vt 0.3693 0.7933 0.0000
vt 0.3705 0.8091 0.0000
vt 0.3649 0.7933 0.0000
vt 0.4005 0.7943 0.0000
vt 0.3893 0.8757 0.0000
vt 0.4078 0.8754 0.0000
vt 0.4111 0.7938 0.0000
vt 0.4134 0.7935 0.0000
vt 0.3796 0.8663 0.0000
vt 0.3804 0.7966 0.0000
vt 0.4098 0.8754 0.0000
vt 0.3671 0.8610 0.0000
vt 0.4017 0.8102 0.0000
vt 0.3779 0.7933 0.0000
vt 0.3708 0.7933 0.0000
vt 0.3622 0.8091 0.0000
vt 0.3601 0.8091 0.0000
vt 0.3625 0.7933 0.0000
vt 0.3594 0.8418 0.0000
vt 0.3692 0.8757 0.0000
vt 0.3633 0.8418 0.0000
vt 0.3781 0.8757 0.0000
# 22 texture coords

o Pierna_izquierda018
g Pierna_izquierda018
usemtl Material___1
s 2
f 31/34/31 32/35/32 33/36/33 
f 34/37/34 32/35/32 31/34/31 
f 34/37/34 35/38/35 32/35/32 
f 36/39/36 35/38/35 34/37/34 
f 34/37/34 37/40/37 36/39/36 
f 38/41/38 36/42/36 37/43/37 
f 38/40/38 39/44/39 36/45/36 
f 38/40/38 40/46/40 39/44/39 
f 38/40/38 41/47/41 40/46/40 
f 41/47/41 42/35/42 40/46/40 
f 41/47/41 43/48/43 42/35/42 
f 43/48/43 44/49/44 42/35/42 
f 43/48/43 45/36/45 44/49/44 
f 44/49/44 45/36/45 46/50/46 
f 45/36/45 47/51/47 46/50/46 
f 47/51/47 48/49/48 46/50/46 
f 33/36/33 48/49/48 47/51/47 
f 48/49/48 49/52/49 46/50/46 
f 32/35/32 49/52/49 48/49/48 
f 32/35/32 50/53/50 49/52/49 
f 44/49/44 46/50/46 49/52/49 
f 44/49/44 49/52/49 51/54/51 
f 42/35/42 44/49/44 51/54/51 
f 40/46/40 42/35/42 51/54/51 
f 40/46/40 51/54/51 52/55/52 
f 39/44/39 40/46/40 52/55/52 
f 35/38/35 50/53/50 32/35/32 
f 32/35/32 48/49/48 33/36/33 
# 28 faces

