# 3ds Max Wavefront OBJ Exporter v0.99 - (c)2007 guruware
# File Created: 08.12.2022 00:38:46

mtllib megamanX_hombroD.mtl

#
# object Pierna_izquierda035
#

v  -0.2674 -0.3427 0.5238
v  -0.3025 -0.4043 0.3665
v  -0.2460 -0.7803 0.7260
v  -0.0819 -0.7782 0.8080
v  -0.1169 -0.3147 0.6188
v  0.0595 -0.8724 0.7830
v  0.0599 -0.3379 0.5935
v  0.1357 -0.9702 0.6470
v  0.1630 -0.3975 0.4656
v  0.0368 -1.0333 0.4024
v  0.0959 -0.4861 0.2362
v  -0.1379 -0.4895 0.1864
v  -0.1812 -0.9656 0.3608
v  -0.3093 -0.8403 0.5662
# 14 vertices

vn -0.8318 0.1793 0.5253
vn -0.9726 -0.1059 -0.2070
vn -0.7183 0.2815 0.6362
vn 0.0716 0.3971 0.9150
vn -0.2143 0.3324 0.9185
vn 0.7458 0.2414 0.6208
vn 0.5254 0.2616 0.8097
vn 0.9996 -0.0174 0.0229
vn 0.9787 -0.0027 0.2054
vn 0.6566 -0.2807 -0.7001
vn 0.7052 -0.2747 -0.6536
vn -0.3724 -0.3066 -0.8759
vn -0.4062 -0.2814 -0.8694
vn -0.9929 0.0052 -0.1187
# 14 vertex normals

vt 0.0880 0.7218 0.0000
vt 0.1467 0.7225 0.0000
vt 0.0880 0.8033 0.0000
vt 0.0684 0.8033 0.0000
vt 0.0684 0.7218 0.0000
vt 0.1467 0.8040 0.0000
vt 0.2025 0.8033 0.0000
vt 0.2025 0.7218 0.0000
vt 0.1686 0.7237 0.0000
vt 0.1705 0.7957 0.0000
# 10 texture coords

o Pierna_izquierda035
g Pierna_izquierda035
usemtl Material___1
s 2
f 1/1/1 2/2/2 3/3/3 
f 1/1/1 3/3/3 4/4/4 
f 1/1/1 4/4/4 5/5/5 
f 5/5/5 4/4/4 6/3/6 
f 5/5/5 6/3/6 7/1/7 
f 7/1/7 6/3/6 8/6/8 
f 7/1/7 8/6/8 9/2/9 
f 9/2/9 8/6/8 10/7/10 
f 9/2/9 10/7/10 11/8/11 
f 12/9/12 11/8/11 10/7/10 
f 13/10/13 12/9/12 10/7/10 
f 12/8/12 13/7/13 14/6/14 
f 2/2/2 12/8/12 14/6/14 
f 2/2/2 14/6/14 3/3/3 
# 14 faces

#
# object Pierna_izquierda034
#

v  -0.4001 -0.2528 0.4424
v  -0.3154 -0.2631 0.4572
v  -0.3373 -0.1706 0.5267
v  -0.4264 -0.1597 0.5111
v  -0.3137 -0.3337 0.2544
v  -0.4051 -0.3225 0.2385
v  -0.3261 -0.3207 0.0289
v  -0.2414 -0.3310 0.0437
v  -0.3257 -0.2522 -0.0520
v  0.3808 -0.3385 0.0714
v  0.3358 -0.4015 0.1445
v  0.2533 -0.3914 0.1301
v  -0.0237 0.3047 0.6203
v  -0.2407 0.2578 0.5923
v  -0.3273 0.0920 0.5804
v  -0.2997 0.3237 0.5740
v  -0.4187 0.1031 0.5644
v  -0.4376 -0.2281 0.2205
v  -0.4115 0.0622 0.1852
v  -0.2704 0.3163 0.1729
v  -0.1687 0.2034 -0.1585
v  -0.2913 -0.0139 -0.1483
v  0.3773 0.1367 -0.0631
v  0.4375 -0.1029 -0.0210
v  0.4376 -0.0415 0.3335
v  0.3692 0.2382 0.2847
v  0.2463 0.2570 0.6694
v  0.3100 0.0141 0.6917
v  0.2801 -0.2460 0.6345
v  0.2187 0.0253 0.6758
v  0.1909 -0.2351 0.6190
v  0.1794 -0.3235 0.5436
v  0.2618 -0.3336 0.5581
v  0.3870 -0.3288 0.3646
v  0.3304 -0.4123 0.3670
v  0.2367 -0.4009 0.3506
v  0.1693 0.2077 0.6639
v  -0.0055 0.3989 0.5826
v  0.0686 0.4094 0.2138
v  0.1165 0.2869 -0.0993
# 40 vertices

vn -0.1968 -0.8011 0.5652
vn -0.1960 -0.8077 0.5561
vn -0.2064 -0.4308 0.8785
vn -0.2051 -0.3959 0.8951
vn -0.1436 -0.9802 0.1361
vn -0.1443 -0.9794 0.1410
vn -0.0486 -0.9276 -0.3704
vn -0.0224 -0.8746 -0.4844
vn 0.0721 -0.5751 -0.8149
vn 0.0725 -0.5734 -0.8160
vn -0.0476 -0.9257 -0.3752
vn -0.0235 -0.8775 -0.4790
vn 0.2821 -0.6264 0.7266
vn -0.6601 -0.5206 0.5415
vn -0.1799 -0.0748 0.9808
vn -0.0110 -0.2095 0.9778
vn 0.8389 -0.3541 0.4133
vn -0.1870 -0.0604 0.9805
vn -0.1847 0.1291 0.9743
vn -0.1819 -0.0860 0.9796
vn -0.9514 0.3053 -0.0413
vn -0.9760 -0.1611 -0.1467
vn -0.9952 -0.0799 0.0569
vn -0.9377 0.2713 -0.2168
vn -0.5923 0.7693 -0.2392
vn -0.5549 0.7193 -0.4179
vn -0.8882 0.2463 -0.3879
vn 0.1597 -0.0975 -0.9823
vn 0.1597 -0.0978 -0.9823
vn 0.1322 -0.2781 -0.9514
vn 0.1323 -0.2777 -0.9515
vn -0.9210 -0.1326 -0.3664
vn -0.8688 -0.3738 -0.3247
vn 0.9856 0.0420 0.1637
vn 0.9462 -0.3234 0.0089
vn 0.9997 0.0228 -0.0058
vn 0.7932 0.6080 0.0326
vn 0.7484 0.6277 0.2140
vn 0.9430 0.0781 0.3236
vn 0.8766 -0.2661 0.4009
vn -0.2048 -0.4008 0.8930
vn -0.1749 -0.0941 0.9801
vn -0.1802 -0.0755 0.9807
vn -0.2058 -0.4253 0.8813
vn -0.1966 -0.8024 0.5635
vn -0.1962 -0.8055 0.5592
vn 0.7179 -0.5300 0.4514
vn 0.9056 -0.3614 0.2218
vn 0.8055 -0.5429 0.2376
vn 0.8091 -0.5876 -0.0089
vn -0.1433 -0.9804 0.1351
vn -0.1443 -0.9794 0.1411
vn -0.9468 0.2442 -0.2095
vn -0.8911 -0.4456 -0.0862
vn -0.9673 0.1781 -0.1805
vn -0.9861 -0.1563 0.0567
vn -0.3791 -0.1722 0.9092
vn -0.1234 0.1333 0.9834
vn -0.1124 0.3875 0.9150
vn 0.1451 0.9789 -0.1437
vn 0.1082 0.9929 0.0500
vn -0.6176 0.7845 -0.0557
vn 0.8165 0.5580 -0.1479
vn 0.1778 0.9254 -0.3348
vn 0.1807 0.0773 -0.9805
vn -0.9323 -0.3412 0.1196
vn 0.9777 -0.0381 0.2066
vn -0.9332 -0.3418 -0.1107
vn 0.9846 0.0453 0.1686
vn 0.7120 -0.6614 0.2359
# 70 vertex normals

vt 0.9941 0.2928 0.0000
vt 0.9870 0.2924 0.0000
vt 0.9890 0.2610 0.0000
vt 0.9947 0.2623 0.0000
vt 0.9873 0.3235 0.0000
vt 0.9954 0.3237 0.0000
vt 0.9952 0.3551 0.0000
vt 0.9882 0.3540 0.0000
vt 0.6770 0.9540 0.0000
vt 0.7083 0.8800 0.0000
vt 0.7179 0.8870 0.0000
vt 0.7142 0.8956 0.0000
vt 0.6923 0.9474 0.0000
vt 0.6886 0.9563 0.0000
vt 0.7817 0.9954 0.0000
vt 0.7797 0.9763 0.0000
vt 0.8130 0.9832 0.0000
vt 0.7815 0.9909 0.0000
vt 0.8128 0.9787 0.0000
vt 0.8118 0.9871 0.0000
vt 0.8108 0.9884 0.0000
vt 0.9896 0.2297 0.0000
vt 0.9890 0.1985 0.0000
vt 0.9951 0.2000 0.0000
vt 0.9942 0.2306 0.0000
vt 0.5827 0.8741 0.0000
vt 0.6415 0.9351 0.0000
vt 0.5832 0.9383 0.0000
vt 0.6439 0.8731 0.0000
vt 0.6442 0.8213 0.0000
vt 0.7025 0.8237 0.0000
vt 0.7021 0.8709 0.0000
vt 0.6558 0.9194 0.0000
vt 0.6799 0.8623 0.0000
vt 0.7078 0.8626 0.0000
vt 0.6755 0.9389 0.0000
vt 0.7338 0.8750 0.0000
vt 0.7025 0.9490 0.0000
vt 0.7015 0.9320 0.0000
vt 0.6678 0.9677 0.0000
vt 0.5832 0.8195 0.0000
vt 0.9937 0.2616 0.0000
vt 0.9880 0.2295 0.0000
vt 0.6167 0.9667 0.0000
vt 0.6411 0.9751 0.0000
vt 0.8024 0.9909 0.0000
vt 0.7923 0.9912 0.0000
vt 0.8066 0.9903 0.0000
vt 0.9891 0.1650 0.0000
vt 0.9944 0.1652 0.0000
vt 0.6440 0.7891 0.0000
vt 0.5840 0.7882 0.0000
vt 0.7025 0.7900 0.0000
vt 0.6857 0.9294 0.0000
vt 0.6857 0.8957 0.0000
vt 0.7098 0.8723 0.0000
vt 0.8099 0.9871 0.0000
vt 0.7766 0.9802 0.0000
vt 0.8073 0.9792 0.0000
# 59 texture coords

o Pierna_izquierda034
g Pierna_izquierda034
usemtl Material___1
s 2
f 15/11/15 16/12/16 17/13/17 
f 17/13/17 18/14/18 15/11/15 
f 19/15/19 16/12/16 15/11/15 
f 15/11/15 20/16/20 19/15/19 
f 19/15/19 20/16/20 21/17/21 
f 21/17/21 22/18/22 19/15/19 
f 23/19/23 24/20/24 25/21/25 
f 25/21/25 26/22/26 22/23/22 
f 23/19/23 25/21/25 22/23/22 
f 21/24/21 23/19/23 22/23/22 
f 22/25/27 26/26/28 27/27/29 
f 22/28/27 27/29/29 28/30/30 
f 28/30/30 29/31/31 22/28/27 
f 29/32/32 28/33/30 30/34/33 
f 31/35/34 29/32/32 30/34/33 
f 18/14/18 17/13/17 29/32/32 
f 29/32/32 31/35/34 18/14/18 
f 31/36/35 32/37/36 18/38/37 
f 31/36/35 33/39/38 32/37/36 
f 34/40/39 33/39/38 31/36/35 
f 34/40/39 35/41/40 33/39/38 
f 35/41/40 36/42/41 33/39/38 
f 35/43/42 37/44/43 38/45/44 
f 38/45/44 36/46/45 35/43/42 
f 36/46/45 38/45/44 24/47/24 
f 24/47/24 23/48/23 36/46/45 
f 36/42/41 23/49/46 32/37/36 
f 32/37/36 23/49/46 21/50/47 
f 39/39/48 24/49/49 38/42/50 
f 40/40/51 39/39/48 38/42/50 
f 41/51/52 39/39/48 40/40/51 
f 41/51/52 42/36/53 39/39/48 
f 42/36/53 43/38/54 39/39/48 
f 43/52/55 42/35/56 44/53/57 
f 44/53/57 45/13/58 43/52/55 
f 45/13/58 46/12/59 47/11/60 
f 47/11/60 43/52/55 45/13/58 
f 43/38/54 47/54/61 48/37/62 
f 48/37/62 47/54/61 49/55/63 
f 48/37/62 49/55/63 24/49/49 
f 24/49/49 49/55/63 25/50/64 
f 25/17/25 49/16/65 50/15/66 
f 50/15/66 26/18/26 25/17/25 
f 46/56/67 26/28/28 50/57/68 
f 45/58/69 26/28/28 46/56/67 
f 44/31/70 26/28/28 45/58/69 
f 51/30/71 26/28/28 44/31/70 
f 51/33/71 44/53/57 42/35/56 
f 50/15/66 49/16/65 47/11/60 
f 47/11/60 46/12/59 50/15/66 
f 39/39/48 43/38/54 48/37/62 
f 51/33/71 42/35/56 41/34/72 
f 27/59/29 51/33/71 41/34/72 
f 27/59/29 41/34/72 52/60/73 
f 53/61/74 52/62/75 41/51/52 
f 53/61/74 30/51/76 52/62/75 
f 34/40/39 30/51/76 53/61/74 
f 30/34/33 27/59/29 52/60/73 
f 53/61/74 41/51/52 40/40/51 
f 37/41/77 53/61/74 40/40/51 
f 54/63/78 53/61/74 37/41/77 
f 35/41/40 53/61/74 54/63/78 
f 39/39/48 48/37/62 24/49/49 
f 40/40/51 38/42/50 37/41/77 
f 35/64/42 54/65/79 37/66/43 
f 35/41/40 34/40/39 53/61/74 
f 33/39/38 36/42/41 32/37/36 
f 18/38/37 32/37/36 15/54/80 
f 30/51/76 34/40/39 31/36/35 
f 29/31/31 17/58/81 22/28/27 
f 30/34/33 28/33/30 27/59/29 
f 27/67/29 26/68/28 51/69/71 
f 32/37/36 21/50/47 20/55/82 
f 16/56/83 19/57/84 22/28/27 
f 32/37/36 20/55/82 15/54/80 
f 17/58/81 16/56/83 22/28/27 
# 76 faces

#
# object Pierna_izquierda033
#

v  -0.1231 -0.1533 0.6414
v  0.1219 0.1602 0.4692
v  -0.0919 0.1874 0.5023
v  -0.3248 -0.1903 0.5160
v  -0.2722 0.1544 0.3853
v  -0.3726 -0.2747 0.3042
v  -0.3123 0.0770 0.1901
v  -0.1533 -0.3879 0.0712
v  -0.1130 -0.0283 -0.0277
v  0.1653 -0.0242 0.0316
v  0.1585 -0.3833 0.1376
v  -0.0201 0.2326 0.1974
v  0.2444 0.0852 0.3086
v  0.1139 -0.1839 0.6094
v  0.2509 -0.2655 0.4369
v  0.0599 -0.3379 0.5935
v  -0.1169 -0.3147 0.6188
v  -0.2674 -0.3427 0.5238
v  0.1630 -0.3975 0.4656
v  0.0959 -0.4861 0.2362
v  -0.1379 -0.4895 0.1864
v  -0.3025 -0.4043 0.3665
# 22 vertices

vn -0.2093 0.1418 0.9675
vn 0.5071 0.6789 0.5311
vn -0.1433 0.7582 0.6361
vn -0.8196 0.0443 0.5712
vn -0.6921 0.6740 0.2581
vn -0.9623 -0.2067 -0.1767
vn -0.8037 0.4363 -0.4045
vn -0.3353 -0.4838 -0.8084
vn -0.2477 0.1828 -0.9514
vn 0.6240 0.1908 -0.7578
vn 0.6523 -0.4823 -0.5847
vn 0.0695 0.9319 -0.3560
vn 0.8915 0.4529 -0.0119
vn 0.5029 0.0550 0.8626
vn 0.9460 -0.1917 0.2614
vn 0.4193 -0.2362 0.8766
vn -0.2081 -0.1457 0.9672
vn -0.7445 -0.2467 0.6203
vn 0.8166 -0.4674 0.3387
vn 0.5589 -0.7256 -0.4015
vn -0.3198 -0.7332 -0.6002
vn -0.8699 -0.4911 -0.0458
# 22 vertex normals

vt 0.7289 0.9882 0.0000
vt 0.7378 0.9420 0.0000
vt 0.7306 0.9420 0.0000
vt 0.7361 0.9882 0.0000
vt 0.7535 0.9882 0.0000
vt 0.7552 0.9420 0.0000
vt 0.7708 0.9882 0.0000
vt 0.7725 0.9420 0.0000
vt 0.7549 0.9534 0.0000
vt 0.7772 0.9589 0.0000
vt 0.7708 0.9883 0.0000
vt 0.7459 0.9822 0.0000
vt 8.0267 0.1074 0.0000
vt 5.8015 5.5276 0.0000
vt 3.3540 0.1918 0.0000
vt 0.7549 0.9357 0.0000
vt 0.7423 0.9991 0.0000
vt 0.7376 0.9991 0.0000
vt 0.7535 0.9991 0.0000
vt 0.7646 0.9991 0.0000
vt 0.7460 0.9945 0.0000
# 21 texture coords

o Pierna_izquierda033
g Pierna_izquierda033
usemtl wire_000000000
s 1
f 55/70/85 56/71/86 57/72/87 
f 58/73/88 55/70/85 57/72/87 
f 58/73/88 57/72/87 59/71/89 
f 59/71/89 60/74/90 58/73/88 
f 59/71/89 61/75/91 60/74/90 
f 61/75/91 62/76/92 60/74/90 
f 61/75/91 63/77/93 62/76/92 
f 63/78/93 64/79/94 65/80/95 
f 65/80/95 62/81/92 63/78/93 
s 2
f 63/82/93 66/83/96 64/84/94 
s 1
f 64/77/94 66/85/96 67/75/97 
f 66/85/96 56/71/86 67/75/97 
f 56/71/86 68/73/98 67/75/97 
f 67/75/97 68/73/98 69/74/99 
f 70/86/100 69/74/99 68/73/98 
f 71/87/101 70/86/100 68/73/98 
f 55/70/85 71/87/101 68/73/98 
f 72/86/102 71/87/101 55/70/85 
f 70/86/100 73/88/103 69/74/99 
f 69/74/99 73/88/103 65/76/95 
f 65/76/95 73/88/103 74/89/104 
f 74/89/104 75/90/105 62/81/92 
f 62/81/92 65/76/95 74/89/104 
f 64/77/94 69/74/99 65/76/95 
f 67/75/97 69/74/99 64/77/94 
f 63/77/93 61/75/91 66/85/96 
f 60/74/90 62/76/92 75/89/105 
f 60/74/90 75/89/105 76/88/106 
f 61/75/91 59/71/89 66/85/96 
f 58/73/88 60/74/90 76/88/106 
f 58/73/88 76/88/106 72/86/102 
f 66/85/96 59/71/89 57/72/87 
f 58/73/88 72/86/102 55/70/85 
f 66/85/96 57/72/87 56/71/86 
f 55/70/85 68/73/98 56/71/86 
# 35 faces

